<mxfile host="app.diagrams.net" modified="2022-12-16T02:38:09.382Z" agent="5.0 (Windows NT 10.0; Win64; x64) AppleWebKit/537.36 (KHTML, like Gecko) Chrome/108.0.0.0 Safari/537.36 Edg/108.0.1462.46" etag="ZPvCrOwVDvcgNRmSis_i" version="20.6.2" type="github">
  <diagram id="bIK98OLS4Evx1nIDcdYg" name="Page-1">
    <mxGraphModel dx="804" dy="534" grid="1" gridSize="10" guides="1" tooltips="1" connect="1" arrows="1" fold="1" page="1" pageScale="1" pageWidth="827" pageHeight="1169" math="0" shadow="0">
      <root>
        <mxCell id="0" />
        <mxCell id="1" parent="0" />
        <mxCell id="-ujmT5bySiFwPhHRX-m0-22" value="" style="rounded=0;whiteSpace=wrap;html=1;dashed=1;fillColor=#F4FBFC;strokeColor=#B3B3B3;" vertex="1" parent="1">
          <mxGeometry x="640" y="1137" width="590" height="103" as="geometry" />
        </mxCell>
        <mxCell id="-ujmT5bySiFwPhHRX-m0-21" value="" style="rounded=0;whiteSpace=wrap;html=1;dashed=1;fillColor=#F4FBFC;strokeColor=#B3B3B3;" vertex="1" parent="1">
          <mxGeometry x="640" y="720" width="590" height="410" as="geometry" />
        </mxCell>
        <mxCell id="apEwKQlibG15B2mx-y4U-6" value="" style="rounded=1;whiteSpace=wrap;html=1;fillColor=none;strokeColor=#0066CC;dashed=1;" parent="1" vertex="1">
          <mxGeometry x="1130" y="850" width="80" height="150" as="geometry" />
        </mxCell>
        <mxCell id="apEwKQlibG15B2mx-y4U-7" value="" style="rounded=1;whiteSpace=wrap;html=1;fillColor=none;strokeColor=#0066CC;dashed=1;" parent="1" vertex="1">
          <mxGeometry x="830" y="850" width="80" height="150" as="geometry" />
        </mxCell>
        <mxCell id="apEwKQlibG15B2mx-y4U-8" value="" style="rounded=1;whiteSpace=wrap;html=1;fillColor=none;strokeColor=#0066CC;dashed=1;" parent="1" vertex="1">
          <mxGeometry x="730" y="850" width="90" height="150" as="geometry" />
        </mxCell>
        <mxCell id="apEwKQlibG15B2mx-y4U-9" value="" style="rounded=1;whiteSpace=wrap;html=1;fillColor=none;strokeColor=#0066CC;dashed=1;" parent="1" vertex="1">
          <mxGeometry x="730" y="740" width="480" height="100" as="geometry" />
        </mxCell>
        <mxCell id="apEwKQlibG15B2mx-y4U-10" value="" style="rounded=1;whiteSpace=wrap;html=1;fillColor=none;strokeColor=#0066CC;dashed=1;" parent="1" vertex="1">
          <mxGeometry x="730" y="1010" width="480" height="107" as="geometry" />
        </mxCell>
        <mxCell id="apEwKQlibG15B2mx-y4U-11" value="" style="rounded=0;whiteSpace=wrap;html=1;dashed=1;perimeterSpacing=0;fillColor=#F4FBFC;strokeColor=#B3B3B3;" parent="1" vertex="1">
          <mxGeometry x="640" y="660" width="590" height="50" as="geometry" />
        </mxCell>
        <mxCell id="apEwKQlibG15B2mx-y4U-12" value="条件单" style="rounded=1;whiteSpace=wrap;html=1;fillColor=#A9C4EB;strokeWidth=0;" parent="1" vertex="1">
          <mxGeometry x="750" y="760" width="120" height="60" as="geometry" />
        </mxCell>
        <mxCell id="apEwKQlibG15B2mx-y4U-13" value="画线单" style="rounded=1;whiteSpace=wrap;html=1;fillColor=#A9C4EB;strokeWidth=0;" parent="1" vertex="1">
          <mxGeometry x="1070" y="760" width="120" height="60" as="geometry" />
        </mxCell>
        <mxCell id="apEwKQlibG15B2mx-y4U-14" value="损盈单" style="rounded=1;whiteSpace=wrap;html=1;fillColor=#A9C4EB;strokeWidth=0;" parent="1" vertex="1">
          <mxGeometry x="910" y="760" width="120" height="60" as="geometry" />
        </mxCell>
        <mxCell id="apEwKQlibG15B2mx-y4U-15" value="行情&lt;br&gt;信息" style="rounded=1;whiteSpace=wrap;html=1;fillColor=#A9C4EB;strokeWidth=0;" parent="1" vertex="1">
          <mxGeometry x="745" y="877" width="60" height="100" as="geometry" />
        </mxCell>
        <mxCell id="apEwKQlibG15B2mx-y4U-16" value="交易&lt;br&gt;系统" style="rounded=1;whiteSpace=wrap;html=1;fillColor=#A9C4EB;strokeWidth=0;" parent="1" vertex="1">
          <mxGeometry x="1140" y="877" width="60" height="100" as="geometry" />
        </mxCell>
        <mxCell id="apEwKQlibG15B2mx-y4U-17" value="策略执行引擎" style="rounded=1;whiteSpace=wrap;html=1;direction=south;fillColor=#A9C4EB;strokeWidth=0;" parent="1" vertex="1">
          <mxGeometry x="925" y="860" width="90" height="60" as="geometry" />
        </mxCell>
        <mxCell id="apEwKQlibG15B2mx-y4U-18" value="行情&lt;br&gt;转换" style="rounded=1;whiteSpace=wrap;html=1;fillColor=#A9C4EB;strokeWidth=0;" parent="1" vertex="1">
          <mxGeometry x="840" y="877" width="60" height="100" as="geometry" />
        </mxCell>
        <mxCell id="apEwKQlibG15B2mx-y4U-19" value="策略执行" style="rounded=1;whiteSpace=wrap;html=1;direction=south;fillColor=#A9C4EB;strokeWidth=0;" parent="1" vertex="1">
          <mxGeometry x="1030" y="860" width="90" height="60" as="geometry" />
        </mxCell>
        <mxCell id="apEwKQlibG15B2mx-y4U-20" value="消息队列" style="rounded=1;whiteSpace=wrap;html=1;direction=south;fillColor=#A9C4EB;strokeWidth=0;" parent="1" vertex="1">
          <mxGeometry x="1030" y="930" width="90" height="60" as="geometry" />
        </mxCell>
        <mxCell id="apEwKQlibG15B2mx-y4U-21" value="状态控制" style="rounded=1;whiteSpace=wrap;html=1;direction=south;fillColor=#A9C4EB;strokeWidth=0;" parent="1" vertex="1">
          <mxGeometry x="925" y="930" width="90" height="60" as="geometry" />
        </mxCell>
        <mxCell id="apEwKQlibG15B2mx-y4U-22" value="用户管理" style="rounded=1;whiteSpace=wrap;html=1;fillColor=#A9C4EB;strokeWidth=0;" parent="1" vertex="1">
          <mxGeometry x="750" y="1037" width="120" height="60" as="geometry" />
        </mxCell>
        <mxCell id="apEwKQlibG15B2mx-y4U-23" value="策略管理" style="rounded=1;whiteSpace=wrap;html=1;fillColor=#A9C4EB;strokeWidth=0;" parent="1" vertex="1">
          <mxGeometry x="910" y="1037" width="120" height="60" as="geometry" />
        </mxCell>
        <mxCell id="apEwKQlibG15B2mx-y4U-24" value="运维监控" style="rounded=1;whiteSpace=wrap;html=1;fillColor=#A9C4EB;strokeWidth=0;" parent="1" vertex="1">
          <mxGeometry x="1070" y="1037" width="120" height="60" as="geometry" />
        </mxCell>
        <mxCell id="apEwKQlibG15B2mx-y4U-25" value="Mybatis" style="rounded=1;whiteSpace=wrap;html=1;fillColor=#A9C4EB;strokeWidth=0;" parent="1" vertex="1">
          <mxGeometry x="730" y="1158.5" width="110" height="60" as="geometry" />
        </mxCell>
        <mxCell id="apEwKQlibG15B2mx-y4U-26" value="Redis" style="rounded=1;whiteSpace=wrap;html=1;fillColor=#A9C4EB;strokeWidth=0;" parent="1" vertex="1">
          <mxGeometry x="850" y="1158.5" width="110" height="60" as="geometry" />
        </mxCell>
        <mxCell id="apEwKQlibG15B2mx-y4U-27" value="策略服务后台" style="text;html=1;align=center;verticalAlign=middle;resizable=0;points=[];autosize=1;strokeColor=none;fillColor=none;" parent="1" vertex="1">
          <mxGeometry x="720" y="1007" width="100" height="30" as="geometry" />
        </mxCell>
        <mxCell id="apEwKQlibG15B2mx-y4U-28" value="业务场景" style="text;html=1;align=center;verticalAlign=middle;resizable=0;points=[];autosize=1;strokeColor=none;fillColor=none;" parent="1" vertex="1">
          <mxGeometry x="724" y="736" width="70" height="30" as="geometry" />
        </mxCell>
        <mxCell id="apEwKQlibG15B2mx-y4U-29" value="外部数据" style="text;html=1;align=center;verticalAlign=middle;resizable=0;points=[];autosize=1;strokeColor=none;fillColor=none;" parent="1" vertex="1">
          <mxGeometry x="720" y="847" width="70" height="30" as="geometry" />
        </mxCell>
        <mxCell id="apEwKQlibG15B2mx-y4U-30" value="数据转换" style="text;html=1;align=center;verticalAlign=middle;resizable=0;points=[];autosize=1;strokeColor=none;fillColor=none;" parent="1" vertex="1">
          <mxGeometry x="820" y="847" width="70" height="30" as="geometry" />
        </mxCell>
        <mxCell id="apEwKQlibG15B2mx-y4U-31" value="输出对接" style="text;html=1;align=center;verticalAlign=middle;resizable=0;points=[];autosize=1;strokeColor=none;fillColor=none;" parent="1" vertex="1">
          <mxGeometry x="1130" y="847" width="70" height="30" as="geometry" />
        </mxCell>
        <mxCell id="apEwKQlibG15B2mx-y4U-32" value="Kafka" style="rounded=1;whiteSpace=wrap;html=1;fillColor=#A9C4EB;strokeWidth=0;" parent="1" vertex="1">
          <mxGeometry x="1090" y="1158.5" width="110" height="60" as="geometry" />
        </mxCell>
        <mxCell id="apEwKQlibG15B2mx-y4U-33" value="Nacos" style="rounded=1;whiteSpace=wrap;html=1;fillColor=#A9C4EB;strokeWidth=0;" parent="1" vertex="1">
          <mxGeometry x="970" y="1158.5" width="110" height="60" as="geometry" />
        </mxCell>
        <mxCell id="-ujmT5bySiFwPhHRX-m0-18" value="&lt;font style=&quot;font-size: 14px;&quot;&gt;接入层&lt;/font&gt;" style="text;html=1;align=center;verticalAlign=middle;resizable=0;points=[];autosize=1;strokeColor=none;fillColor=none;strokeWidth=3;" vertex="1" parent="1">
          <mxGeometry x="645" y="670" width="70" height="30" as="geometry" />
        </mxCell>
        <mxCell id="-ujmT5bySiFwPhHRX-m0-23" value="&lt;font style=&quot;font-size: 14px;&quot;&gt;业务层&lt;/font&gt;" style="text;html=1;align=center;verticalAlign=middle;resizable=0;points=[];autosize=1;strokeColor=none;fillColor=none;" vertex="1" parent="1">
          <mxGeometry x="645" y="910" width="70" height="30" as="geometry" />
        </mxCell>
        <mxCell id="-ujmT5bySiFwPhHRX-m0-24" value="&lt;font style=&quot;font-size: 14px;&quot;&gt;数据层&lt;/font&gt;" style="text;html=1;align=center;verticalAlign=middle;resizable=0;points=[];autosize=1;strokeColor=none;fillColor=none;" vertex="1" parent="1">
          <mxGeometry x="650" y="1169" width="70" height="30" as="geometry" />
        </mxCell>
        <mxCell id="-ujmT5bySiFwPhHRX-m0-25" value="接入控制" style="rounded=1;whiteSpace=wrap;html=1;fillColor=#A9C4EB;strokeWidth=0;" vertex="1" parent="1">
          <mxGeometry x="745" y="670" width="115" height="30" as="geometry" />
        </mxCell>
        <mxCell id="-ujmT5bySiFwPhHRX-m0-26" value="鉴权校验" style="rounded=1;whiteSpace=wrap;html=1;fillColor=#A9C4EB;strokeWidth=0;" vertex="1" parent="1">
          <mxGeometry x="910" y="670" width="115" height="30" as="geometry" />
        </mxCell>
        <mxCell id="-ujmT5bySiFwPhHRX-m0-27" value="请求路由" style="rounded=1;whiteSpace=wrap;html=1;fillColor=#A9C4EB;strokeWidth=0;" vertex="1" parent="1">
          <mxGeometry x="1072.5" y="670" width="115" height="30" as="geometry" />
        </mxCell>
      </root>
    </mxGraphModel>
  </diagram>
</mxfile>
